<svg height="512pt" viewBox="0 0 512 512" width="512pt" xmlns="http://www.w3.org/2000/svg"><path d="m256 102.398438c-65.980469 0-119.464844 53.488281-119.464844 119.46875 0 65.980468 53.484375 119.464843 119.464844 119.464843s119.464844-53.484375 119.464844-119.464843c-.074219-65.949219-53.515625-119.394532-119.464844-119.46875zm0 221.867187c-56.554688 0-102.398438-45.84375-102.398438-102.398437 0-56.554688 45.84375-102.402344 102.398438-102.402344s102.398438 45.847656 102.398438 102.402344c-.0625 56.527343-45.871094 102.335937-102.398438 102.398437zm0 0"/><path d="m307.199219 153.601562h-34.132813c-4.710937 0-8.53125 3.820313-8.53125 8.53125v17.066407h-25.601562c-4.714844 0-8.535156 3.820312-8.535156 8.535156v25.597656h-25.597657c-4.714843 0-8.535156 3.820313-8.535156 8.535157v51.199218c0 4.714844 3.820313 8.535156 8.535156 8.535156h102.398438c4.714843 0 8.535156-3.820312 8.535156-8.535156v-110.933594c0-4.710937-3.820313-8.53125-8.535156-8.53125zm-76.800781 110.933594h-17.066407v-34.136718h17.066407zm34.136718 0h-17.070312v-68.269531h17.070312zm34.132813 0h-17.066407v-93.867187h17.066407zm0 0"/><path d="m196.578125 409.601562c.25 14.425782-3.070313 45.464844-35.378906 51.199219h-37.464844c-10.738281.03125-20.84375 5.085938-27.308594 13.65625l-7.679687 10.234375c-3.878906 5.171875-4.5 12.09375-1.609375 17.875s8.800781 9.433594 15.261719 9.433594h307.203124c6.460938 0 12.371094-3.652344 15.261719-9.433594s2.269531-12.703125-1.609375-17.875l-7.679687-10.238281c-6.46875-8.570313-16.570313-13.621094-27.308594-13.652344h-37.464844c-32.316406-5.734375-35.628906-36.789062-35.378906-51.199219h80.042969l2.914062 2.914063.011719.015625.011719.007812 42.207031 42.203126.015625.023437.023438.015625 18.085937 18.085938c6.667969 6.65625 17.464844 6.65625 24.132813 0l24.132812-24.132813c6.660156-6.667969 6.660156-17.46875 0-24.140625l-15.511719-15.503906c11.925781-2.433594 20.496094-12.917969 20.511719-25.089844v-358.398438c-.015625-14.132812-11.46875-25.585937-25.601562-25.601562h-460.796876c-14.132812.015625-25.585937 11.46875-25.601562 25.601562v358.398438c.015625 14.132812 11.46875 25.585938 25.601562 25.601562zm153.289063 68.265626h38.398437c5.371094.015624 10.425781 2.539062 13.660156 6.824218l7.730469 10.242188h-307.257812l7.675781-10.230469c3.230469-4.289063 8.285156-6.820313 13.660156-6.835937zm-34.417969-17.066407h-118.898438c11.976563-14.292969 18.121094-32.578125 17.210938-51.199219h84.476562c-.910156 18.621094 5.234375 36.90625 17.210938 51.199219zm54.863281-136.703125 28.074219 28.074219-12.082031 12.082031-28.074219-28.074218c4.246093-3.800782 8.28125-7.835938 12.082031-12.082032zm-114.3125 34.300782c-75.40625 0-136.535156-61.125-136.535156-136.53125s61.128906-136.535157 136.535156-136.535157 136.535156 61.128907 136.535156 136.535157c-.085937 75.367187-61.164062 136.445312-136.535156 136.53125zm136.363281 23.960937 23.949219-23.960937h.359375l11.890625 11.890624-24.136719 24.136719zm24.132813 24.132813 24.136718-24.136719 30.175782 30.167969-24.140625 24.140624zm78.449218 30.167968-24.144531 24.140625-12.070312-12.070312 24.140625-24.140625zm-.011718-52.660156c-.003906 4.710938-3.824219 8.527344-8.535156 8.535156h-11.460938l-34.132812-34.136718h54.128906zm-477.867188-358.398438c.003906-4.710937 3.824219-8.53125 8.535156-8.535156h460.796876c4.710937.003906 8.53125 3.824219 8.535156 8.535156v315.730469h-76.628906c-1.203126-.125-2.414063-.125-3.617188 0h-3.003906l-30.617188-30.613281c48.464844-68.136719 33.5-162.523438-33.664062-212.328125-67.160156-49.804687-161.828125-36.714844-212.953125 29.449219-51.125 66.160156-39.914063 161.066406 25.222656 213.492187h-142.605469zm0 358.398438v-25.601562h168.886719c50.910156 26.355468 112.296875 21.925781 158.890625-11.464844l31.085938 31.082031c-1.328126 5.015625-.289063 10.363281 2.816406 14.519531h-353.144532c-4.710937-.007812-8.53125-3.824218-8.535156-8.535156zm0 0"/><path d="m42.667969 51.199219h8.53125c4.714843 0 8.535156-3.820313 8.535156-8.53125 0-4.714844-3.820313-8.535157-8.535156-8.535157h-8.53125c-4.714844 0-8.535157 3.820313-8.535157 8.535157 0 4.710937 3.820313 8.53125 8.535157 8.53125zm0 0"/><path d="m477.867188 42.667969c0-4.714844-3.820313-8.535157-8.535157-8.535157h-384c-4.710937 0-8.53125 3.820313-8.53125 8.535157 0 4.710937 3.820313 8.53125 8.53125 8.53125h384c4.714844 0 8.535157-3.820313 8.535157-8.53125zm0 0"/><path d="m59.734375 68.265625c-14.132813.015625-25.585937 11.46875-25.601563 25.601563v17.066406c0 14.136718 11.460938 25.601562 25.601563 25.601562 14.136719 0 25.597656-11.464844 25.597656-25.601562v-17.066406c-.015625-14.132813-11.464843-25.585938-25.597656-25.601563zm8.53125 42.667969c0 4.710937-3.820313 8.53125-8.53125 8.53125-4.714844 0-8.535156-3.820313-8.535156-8.53125v-17.066406c0-4.714844 3.820312-8.535157 8.535156-8.535157 4.710937 0 8.53125 3.820313 8.53125 8.535157zm0 0"/><path d="m59.734375 162.132812c-14.132813.015626-25.585937 11.46875-25.601563 25.601563v17.066406c0 14.136719 11.460938 25.597657 25.601563 25.597657 14.136719 0 25.597656-11.460938 25.597656-25.597657v-17.066406c-.015625-14.132813-11.464843-25.585937-25.597656-25.601563zm8.53125 42.667969c0 4.710938-3.820313 8.53125-8.53125 8.53125-4.714844 0-8.535156-3.820312-8.535156-8.53125v-17.066406c0-4.714844 3.820312-8.535156 8.535156-8.535156 4.710937 0 8.53125 3.820312 8.53125 8.535156zm0 0"/><path d="m452.265625 256c-14.132813.015625-25.582031 11.46875-25.597656 25.601562v17.066407c0 14.136719 11.460937 25.597656 25.597656 25.597656 14.140625 0 25.601563-11.460937 25.601563-25.597656v-17.066407c-.015626-14.132812-11.46875-25.585937-25.601563-25.601562zm8.535156 42.667969c0 4.710937-3.820312 8.53125-8.535156 8.53125-4.710937 0-8.53125-3.820313-8.53125-8.53125v-17.066407c0-4.714843 3.820313-8.535156 8.53125-8.535156 4.714844 0 8.535156 3.820313 8.535156 8.535156zm0 0"/><path d="m110.933594 128v-51.199219c0-4.714843-3.820313-8.535156-8.535156-8.535156-4.710938 0-8.53125 3.820313-8.53125 8.535156v51.199219c0 4.710938 3.820312 8.535156 8.53125 8.535156 4.714843 0 8.535156-3.824218 8.535156-8.535156zm0 0"/><path d="m452.265625 110.933594v-17.066406c0-14.140626-11.460937-25.601563-25.597656-25.601563-14.140625 0-25.601563 11.460937-25.601563 25.601563v17.066406c0 14.136718 11.460938 25.601562 25.601563 25.601562 14.136719 0 25.597656-11.464844 25.597656-25.601562zm-34.132813 0v-17.066406c0-4.714844 3.820313-8.535157 8.535157-8.535157 4.710937 0 8.53125 3.820313 8.53125 8.535157v17.066406c0 4.710937-3.820313 8.53125-8.53125 8.53125-4.714844 0-8.535157-3.820313-8.535157-8.53125zm0 0"/><path d="m469.332031 68.265625c-4.710937 0-8.53125 3.820313-8.53125 8.535156v51.199219c0 4.710938 3.820313 8.535156 8.53125 8.535156 4.714844 0 8.535157-3.824218 8.535157-8.535156v-51.199219c0-4.714843-3.820313-8.535156-8.535157-8.535156zm0 0"/><path d="m452.265625 221.867188c0 4.710937 3.820313 8.53125 8.535156 8.53125 4.710938 0 8.53125-3.820313 8.53125-8.53125v-51.199219c0-4.714844-3.820312-8.535157-8.53125-8.535157-4.714843 0-8.535156 3.820313-8.535156 8.535157zm0 0"/><path d="m59.734375 256c-4.714844 0-8.535156 3.820312-8.535156 8.535156v51.199219c0 4.710937 3.820312 8.53125 8.535156 8.53125 4.710937 0 8.53125-3.820313 8.53125-8.53125v-51.199219c0-4.714844-3.820313-8.535156-8.53125-8.535156zm0 0"/></svg>